<?xml version="1.0" standalone="no"?><!DOCTYPE svg PUBLIC "-//W3C//DTD SVG 1.1//EN" "http://www.w3.org/Graphics/SVG/1.1/DTD/svg11.dtd"><svg t="1757848334781" class="icon" viewBox="0 0 1024 1024" version="1.1" xmlns="http://www.w3.org/2000/svg" p-id="20121" xmlns:xlink="http://www.w3.org/1999/xlink" width="200" height="200"><path d="M323.392 145.696A32 32 0 0 1 352 128c70.816 0 145.024 24.576 201.92 63.104C609.92 228.992 656 285.44 656 352c0 5.888-0.32 11.552-0.96 16.992 26.688 2.272 61.856 9.6 93.952 33.248 46.528 34.272 79.36 96.832 82.72 203.488 12.672 7.488 24.192 17.12 33.952 29.408 20.608 25.92 30.336 59.904 30.336 100.864 0 45.76-25.28 78.752-59.328 100.832-32.96 21.376-76.288 34.336-120.832 42.624C626.976 896 520.64 896 449.28 896H448c-199.36 0-309.536-88.8-319.84-196.96-9.888-103.552 75.648-196.672 209.92-202.72 54.336-59.392 62.72-120.96 53.184-175.616-10.336-59.328-42.24-111.36-64.864-141.504a32 32 0 0 1-3.008-33.504z m-29.44 421.504c-73.408 19.712-106.784 76.416-102.08 125.76C197.568 752.8 263.328 832 448 832c72.64 0 173.568-0.096 256.16-15.456 41.472-7.712 75.136-18.752 97.664-33.376 21.44-13.92 30.176-28.96 30.176-47.168 0-31.04-7.264-49.536-16.416-61.056-9.152-11.52-23.104-19.744-43.776-24.512-43.456-10.016-104.992-2.144-173.792 11.008-15.424 2.944-31.264 6.176-47.2 9.408-51.2 10.464-103.136 21.056-144.416 22.88-26.944 1.184-55.616-0.864-78.496-13.504a74.56 74.56 0 0 1-29.856-29.568C290.944 637.664 288 623.136 288 608c0-14.976 2.112-28.544 5.952-40.8z m145.12-110.304c7.072-2.304 14.08-4.48 20.864-6.656l2.432-0.768c39.232-12.384 72.416-23.136 96.384-39.104 21.632-14.4 33.248-31.296 33.248-58.368 0-35.84-25.92-75.392-73.92-107.904a313.632 313.632 0 0 0-103.04-44.544c16.64 31.04 32.032 68.704 39.296 110.144 8.064 46.24 5.856 96.832-15.264 147.2z m327.36 127.616c-6.464-78.08-32.16-113.6-55.424-130.752-26.656-19.648-57.92-21.568-81.76-21.76-9.792 12.384-21.76 22.816-35.008 31.616-32.32 21.568-73.952 34.72-110.176 46.144l-2.432 0.768c-39.232 12.384-72.416 23.136-96.384 39.104-21.632 14.4-33.248 31.296-33.248 58.368 0 6.88 1.312 10.336 2.176 11.904 0.768 1.376 1.92 2.784 4.672 4.32 6.88 3.776 20.704 6.624 44.736 5.568 35.776-1.6 80.288-10.656 130.048-20.8 16.896-3.424 34.4-6.976 52.352-10.432 59.84-11.424 125.472-21.504 180.48-14.08z" fill="#f39b21" p-id="20122"></path></svg>