<?xml version="1.0" standalone="no"?><!DOCTYPE svg PUBLIC "-//W3C//DTD SVG 1.1//EN" "http://www.w3.org/Graphics/SVG/1.1/DTD/svg11.dtd"><svg t="1757846815689" class="icon" viewBox="0 0 1024 1024" version="1.1" xmlns="http://www.w3.org/2000/svg" p-id="2010" xmlns:xlink="http://www.w3.org/1999/xlink" width="200" height="200"><path d="M762.88 808.448H261.12c-59.392 0-107.52-50.688-107.52-113.2032 0-62.5152 48.128-113.152 107.52-113.152h501.76c59.392 0 107.52 50.6368 107.52 113.152 0 62.464-48.128 113.152-107.52 113.152z m-91.136-264.0896H352.256c-47.2064 0-85.504-33.792-85.504-75.4688s38.2464-75.4688 85.504-75.4688h319.488c47.2064 0 85.504 33.792 85.504 75.4688s-38.2976 75.4688-85.504 75.4688z m-140.9024-188.672s12.0832-109.3632 0-150.8864a177.2032 177.2032 0 0 1 150.9376 148.6848l-150.9376 2.2016z" fill="#f39b21" p-id="2011"></path></svg>