<?xml version="1.0" standalone="no"?><!DOCTYPE svg PUBLIC "-//W3C//DTD SVG 1.1//EN" "http://www.w3.org/Graphics/SVG/1.1/DTD/svg11.dtd"><svg t="1757847925327" class="icon" viewBox="0 0 1024 1024" version="1.1" xmlns="http://www.w3.org/2000/svg" p-id="6038" xmlns:xlink="http://www.w3.org/1999/xlink" width="200" height="200"><path d="M606.677333 128a32 32 0 0 0-10.026666 2.048c-59.2 22.357333-97.856 47.530667-123.562667 74.901333-25.728 27.392-37.226667 56.682667-43.797333 80.128-6.570667 23.466667-9.898667 40.362667-15.253334 49.472-4.117333 6.997333-8.789333 12.544-22.826666 17.792a132.501333 132.501333 0 0 0-29.034667-8.533333c-52.693333-8.917333-108.522667 14.336-139.093333 63.445333l-0.213334 0.32-0.170666 0.341334c-17.6 29.866667-31.530667 67.797333-29.44 109.034666 0.533333 10.986667 2.56 22.122667 5.909333 33.173334a143.232 143.232 0 0 0-115.413333 70.293333l-0.085334 0.170667-0.128 0.213333c-38.506667 67.968-15.466667 155.605333 52.885334 194.325333l0.618666 0.384 0.704 0.32c4.330667 2.197333 45.013333 24 107.669334 43.093334C308.053333 877.994667 395.946667 896 504.96 896c108.928 0 200.213333-17.493333 266.410667-36.266667 33.109333-9.365333 59.946667-19.029333 79.68-27.072 19.349333-7.893333 29.610667-12.714667 37.909333-17.834666 66.773333-38.186667 90.666667-122.368 52.288-188.202667-23.936-42.026667-65.834667-66.026667-110.378667-69.674667-5.546667-23.061333-12.992-45.077333-28.544-63.786666-10.112-12.16-24.064-21.397333-40-27.626667 2.709333-11.690667 4.544-24.746667 4.544-39.957333 0-72.874667-46.933333-118.336-80.853333-154.112-16.981333-17.92-31.210667-34.197333-39.381333-50.304-8.192-16.106667-11.733333-31.530667-7.210667-55.210667A32 32 0 0 0 606.677333 128z m-29.930666 82.176c2.645333 14.378667 6.762667 28.032 12.842666 40 13.44 26.453333 32.362667 46.741333 49.984 65.322667 35.264 37.162667 63.296 64.128 63.296 110.08 0 11.733333-1.28 20.352-2.901333 27.008-76.458667-12.352-141.525333-29.909333-190.016-46.72-21.333333-7.381333-39.04-14.72-54.250667-21.418667a91.946667 91.946667 0 0 0 13.504-17.493333c13.781333-23.424 16.405333-45.653333 21.717334-64.576 5.312-18.944 11.626667-35.328 28.821333-53.632 11.413333-12.16 31.530667-25.28 57.002667-38.570667z m-239.616 194.816c13.696-0.213333 27.733333 3.776 40.618666 12.224 18.432 12.714667 52.608 28.821333 111.253334 49.152 59.456 20.629333 140.16 42.432 236.949333 55.168h0.170667l0.170666 0.042667c15.808 1.92 21.184 5.696 26.837334 12.501333 4.864 5.866667 9.557333 17.066667 13.696 32.042667-1.941333 0.746667-3.925333 1.386667-5.866667 2.218666-0.490667 0.042667-0.917333 0.042667-1.173333 0.085334-1.066667 0.149333-1.792 0.32-2.368 0.448a36.16 36.16 0 0 0-4.266667 1.258666c-0.853333 0.298667-1.322667 0.512-1.92 0.746667l-4.117333 1.664a620.714667 620.714667 0 0 1-66.005334 21.909333A691.114667 691.114667 0 0 1 501.397333 618.666667c-71.722667 0-127.786667-12.202667-165.866666-24.533334a341.418667 341.418667 0 0 1-39.082667-15.210666c-29.610667-20.181333-38.058667-41.216-39.253333-65.173334-1.216-24.021333 7.893333-51.456 20.544-73.002666 14.592-23.210667 36.565333-35.370667 59.413333-35.754667z m-133.333334 208.341333c3.690667-0.106667 7.424 0.064 11.157334 0.490667 9.813333 1.173333 19.626667 4.394667 29.034666 9.642667l0.341334 0.234666c1.578667 1.045333 3.2 2.026667 5.12 3.136 3.84 2.218667 8.746667 4.864 14.890666 7.829334 12.309333 5.952 29.525333 13.226667 51.456 20.330666C359.637333 669.226667 422.378667 682.666667 501.376 682.666667c79.786667 0 147.882667-13.184 196.544-26.410667a683.029333 683.029333 0 0 0 72.746667-24.213333h1.962666l7.082667-3.754667c38.613333-20.608 84.16-8.448 106.005333 30.08l0.106667 0.213333 0.128 0.170667c21.610667 36.885333 10.218667 78.506667-28.949333 100.693333l-0.576 0.341334-0.597334 0.384c1.28-0.789333-11.306667 6.037333-28.906666 13.205333s-42.261333 16.106667-72.96 24.789333C692.565333 815.573333 607.04 832 504.96 832c-101.973333 0-183.466667-16.789333-240.917333-34.282667-56.896-17.322667-86.421333-33.514667-96.490667-38.634666-37.610667-21.653333-49.941333-68.309333-28.437333-106.538667 14.229333-24.170667 38.741333-38.4 64.682666-39.210667z" p-id="6039" fill="#f39b21"></path></svg>